<svg width="28" height="28" viewBox="0 0 28 28" fill="none" xmlns="http://www.w3.org/2000/svg">
<path d="M25.2356 18.7245H8.95237L9.76995 17.0998L23.3543 17.0758C23.8137 17.0758 24.2074 16.7557 24.2895 16.3129L26.1707 6.03963C26.2199 5.7702 26.1461 5.49276 25.9656 5.28201C25.8765 5.17829 25.7652 5.09475 25.6396 5.03716C25.514 4.97958 25.3771 4.94935 25.2383 4.94855L7.95706 4.89253L7.8094 4.21494C7.71643 3.78277 7.31721 3.46799 6.86331 3.46799H2.6387C2.3827 3.46799 2.13719 3.5672 1.95617 3.7438C1.77516 3.9204 1.67346 4.15993 1.67346 4.40968C1.67346 4.65943 1.77516 4.89895 1.95617 5.07556C2.13719 5.25216 2.3827 5.35137 2.6387 5.35137H6.08127L6.72659 8.34451L8.31526 15.8487L6.26995 19.1059C6.16373 19.2458 6.09975 19.4119 6.08526 19.5854C6.07076 19.7589 6.10632 19.9329 6.18791 20.0877C6.35198 20.4051 6.68284 20.6052 7.04924 20.6052H8.76643C8.40035 21.0796 8.20261 21.6574 8.20315 22.2511C8.20315 23.7611 9.46096 24.9882 11.0086 24.9882C12.5563 24.9882 13.8141 23.7611 13.8141 22.2511C13.8141 21.6562 13.6117 21.0774 13.2508 20.6052H17.6559C17.2898 21.0796 17.0921 21.6574 17.0926 22.2511C17.0926 23.7611 18.3504 24.9882 19.8981 24.9882C21.4457 24.9882 22.7035 23.7611 22.7035 22.2511C22.7035 21.6562 22.5012 21.0774 22.1403 20.6052H25.2383C25.7688 20.6052 26.2035 20.1837 26.2035 19.6635C26.202 19.414 26.0993 19.1752 25.9179 18.9993C25.7366 18.8234 25.4913 18.7246 25.2356 18.7245ZM8.35901 6.74924L24.1035 6.79992L22.5613 15.2245L10.1938 15.2458L8.35901 6.74924ZM11.0086 23.0941C10.5328 23.0941 10.1446 22.7153 10.1446 22.2511C10.1446 21.787 10.5328 21.4082 11.0086 21.4082C11.4844 21.4082 11.8727 21.787 11.8727 22.2511C11.8727 22.4747 11.7816 22.6891 11.6196 22.8472C11.4576 23.0053 11.2378 23.0941 11.0086 23.0941ZM19.8981 23.0941C19.4223 23.0941 19.034 22.7153 19.034 22.2511C19.034 21.787 19.4223 21.4082 19.8981 21.4082C20.3739 21.4082 20.7621 21.787 20.7621 22.2511C20.7621 22.4747 20.6711 22.6891 20.5091 22.8472C20.347 23.0053 20.1272 23.0941 19.8981 23.0941Z" fill="black"/>
</svg>
