<svg width="28" height="28" viewBox="0 0 28 28" fill="none" xmlns="http://www.w3.org/2000/svg">
<path d="M23.3334 13.6585V7.96748H25.6667V14.7967H23.3334M23.3334 19.3496H25.6667V17.0732H23.3334M11.6667 14.7967C14.7817 14.7967 21 16.322 21 19.3496V22.7642H2.33337V19.3496C2.33337 16.322 8.55171 14.7967 11.6667 14.7967ZM11.6667 4.55285C12.9044 4.55285 14.0914 5.03252 14.9665 5.88634C15.8417 6.74017 16.3334 7.8982 16.3334 9.10569C16.3334 10.3132 15.8417 11.4712 14.9665 12.325C14.0914 13.1789 12.9044 13.6585 11.6667 13.6585C10.429 13.6585 9.24205 13.1789 8.36688 12.325C7.49171 11.4712 7.00004 10.3132 7.00004 9.10569C7.00004 7.8982 7.49171 6.74017 8.36688 5.88634C9.24205 5.03252 10.429 4.55285 11.6667 4.55285ZM11.6667 16.9593C8.20171 16.9593 4.55004 18.6211 4.55004 19.3496V20.6016H18.7834V19.3496C18.7834 18.6211 15.1317 16.9593 11.6667 16.9593ZM11.6667 6.71545C11.0169 6.71545 10.3938 6.96728 9.9343 7.41553C9.47483 7.86379 9.21671 8.47176 9.21671 9.10569C9.21671 9.73962 9.47483 10.3476 9.9343 10.7958C10.3938 11.2441 11.0169 11.4959 11.6667 11.4959C12.3165 11.4959 12.9397 11.2441 13.3991 10.7958C13.8586 10.3476 14.1167 9.73962 14.1167 9.10569C14.1167 8.47176 13.8586 7.86379 13.3991 7.41553C12.9397 6.96728 12.3165 6.71545 11.6667 6.71545Z" fill="black"/>
</svg>
